<svg t="1778580381415" class="icon" viewBox="0 0 1024 1024" version="1.1" xmlns="http://www.w3.org/2000/svg" p-id="6443" width="64" height="64"><path d="M512 136.533333c64 0 119.466667 55.466667 119.466667 119.466667v51.2H768c64 0 115.2 51.2 119.466667 110.933333v89.6c0 21.333333-17.066667 38.4-38.4 38.4h-4.266667V810.666667c0 38.4-29.866667 72.533333-72.533333 76.8H256c-42.666667 0-76.8-34.133333-76.8-76.8v-264.533334h-4.266667c-21.333333 0-34.133333-12.8-38.4-34.133333v-85.333333c0-64 55.466667-119.466667 119.466667-119.466667h136.533333V256c0-64 51.2-115.2 110.933334-119.466667h8.533333z m264.533333 409.6H247.466667V810.666667c0 4.266667 4.266667 8.533333 4.266666 8.533333H371.2v-72.533333c0-17.066667 17.066667-34.133333 34.133333-34.133334s29.866667 12.8 34.133334 29.866667v76.8h145.066666v-72.533333c0-17.066667 17.066667-34.133333 34.133334-34.133334s29.866667 12.8 34.133333 29.866667v76.8H768c4.266667 0 8.533333-4.266667 8.533333-4.266667v-268.8z m-8.533333-170.666666H256c-29.866667 0-51.2 21.333333-51.2 51.2v51.2h614.4V426.666667c0-25.6-21.333333-46.933333-46.933333-51.2H768z m-256-170.666667c-29.866667 0-51.2 21.333333-51.2 51.2v51.2h102.4V256c0-25.6-21.333333-46.933333-46.933333-51.2H512z" fill="#FFFFFF" p-id="6444"></path></svg>