<?xml version="1.0" standalone="no"?><!DOCTYPE svg PUBLIC "-//W3C//DTD SVG 1.1//EN" "http://www.w3.org/Graphics/SVG/1.1/DTD/svg11.dtd"><svg t="1778585134278" class="icon" viewBox="0 0 1024 1024" version="1.1" xmlns="http://www.w3.org/2000/svg" p-id="23277" xmlns:xlink="http://www.w3.org/1999/xlink" width="64" height="64"><path d="M594.5 306c68.483 0 124 55.517 124 124v164c0 68.483-55.517 124-124 124h-164c-68.483 0-124-55.517-124-124V430c0-68.483 55.517-124 124-124h164z m0 72h-164c-28.719 0-52 23.281-52 52v164c0 28.719 23.281 52 52 52h164c28.719 0 52-23.281 52-52V430c0-28.719-23.281-52-52-52zM388 111.567c19.882 0 36 16.117 36 36 0 19.882-16.118 36-36 36H236c-28.719 0-52 23.28-52 52v152c0 19.882-16.118 36-36 36s-36-16.118-36-36v-152c0-68.484 55.517-124 124-124h152zM388 911.567c19.882 0 36-16.118 36-36 0-19.883-16.118-36-36-36H236c-28.719 0-52-23.282-52-52v-152c0-19.883-16.118-36-36-36s-36 16.117-36 36v152c0 68.483 55.517 124 124 124h152zM638 911.567c-19.882 0-36-16.118-36-36 0-19.883 16.118-36 36-36h152c28.719 0 52-23.282 52-52v-152c0-19.883 16.118-36 36-36s36 16.117 36 36v152c0 68.483-55.517 124-124 124H638zM638 111.567c-19.882 0-36 16.117-36 36 0 19.882 16.118 36 36 36h152c28.719 0 52 23.28 52 52v152c0 19.882 16.118 36 36 36s36-16.118 36-36v-152c0-68.484-55.517-124-124-124H638z" fill="#FFFFFF" p-id="23278"></path></svg>