<?xml version="1.0" standalone="no"?><!DOCTYPE svg PUBLIC "-//W3C//DTD SVG 1.1//EN" "http://www.w3.org/Graphics/SVG/1.1/DTD/svg11.dtd"><svg t="1778584951601" class="icon" viewBox="0 0 1024 1024" version="1.1" xmlns="http://www.w3.org/2000/svg" p-id="19725" xmlns:xlink="http://www.w3.org/1999/xlink" width="64" height="64"><path d="M512 1024c-284.745143 0-512-229.376-512-513.389714C0 226.742857 227.254857 0 512 0s512 229.376 512 510.610286C1024 791.917714 794.038857 1024 512 1024zM512 146.285714a366.445714 366.445714 0 0 0-365.714286 365.714286c0 201.435429 164.278857 365.714286 365.714286 365.714286s365.714286-164.278857 365.714286-365.714286-164.278857-365.714286-365.714286-365.714286z m0 585.142857c-120.100571 0-219.428571-97.28-219.428571-219.428571s97.28-219.428571 219.428571-219.428571 219.428571 97.28 219.428571 219.428571-99.328 219.428571-219.428571 219.428571z" fill="#FFFFFF" p-id="19726"></path></svg>