<?xml version="1.0" standalone="no"?><!DOCTYPE svg PUBLIC "-//W3C//DTD SVG 1.1//EN" "http://www.w3.org/Graphics/SVG/1.1/DTD/svg11.dtd"><svg t="1778585029614" class="icon" viewBox="0 0 1024 1024" version="1.1" xmlns="http://www.w3.org/2000/svg" p-id="20799" xmlns:xlink="http://www.w3.org/1999/xlink" width="64" height="64"><path d="M698.112 443.4432a33.28 33.28 0 0 1-33.28-33.28V317.44c0-90.4704-68.5568-163.84-152.832-163.84S359.168 226.816 359.168 317.44v92.7232a33.28 33.28 0 0 1-66.56 0V317.44c0-127.1808 98.4064-230.4 219.392-230.4s219.392 103.0656 219.392 230.4v92.7232a33.28 33.28 0 0 1-33.28 33.28z" p-id="20800" fill="#FFFFFF"></path><path d="M794.88 937.3696H229.12a84.5824 84.5824 0 0 1-84.48-84.48V478.0544a84.5824 84.5824 0 0 1 84.48-84.48h565.76a84.5824 84.5824 0 0 1 84.48 84.48v374.8352a84.5824 84.5824 0 0 1-84.48 84.48zM229.12 460.1344a17.92 17.92 0 0 0-17.92 17.92v374.8352a17.92 17.92 0 0 0 17.92 17.92h565.76a17.92 17.92 0 0 0 17.92-17.92V478.0544a17.92 17.92 0 0 0-17.92-17.92z" p-id="20801" fill="#FFFFFF"></path><path d="M513.1776 722.4832a86.3744 86.3744 0 1 1 86.3744-86.3232 86.3744 86.3744 0 0 1-86.3744 86.3232z m0-121.4976a35.1744 35.1744 0 1 0 35.1744 35.1744 35.1744 35.1744 0 0 0-35.1744-35.1744z" p-id="20802" fill="#FFFFFF"></path><path d="M513.1776 832.4608a25.6 25.6 0 0 1-25.6-25.6v-109.9776a25.6 25.6 0 0 1 51.2 0v109.9776a25.6 25.6 0 0 1-25.6 25.6z" p-id="20803" fill="#FFFFFF"></path></svg>